<svg id="圖層_1" data-name="圖層 1" xmlns="http://www.w3.org/2000/svg" viewBox="0 0 37.61 43.58"><defs><style>.cls-1{fill:none;stroke:#fff;stroke-miterlimit:10;}.cls-2{fill:#fff;}</style></defs><title>eraser</title><path class="cls-1" d="M27.52,41.21A10.14,10.14,0,1,1,10.62,30" transform="translate(-8.34 -2.8)"/><path class="cls-1" d="M11.11,28.77,28,3.5,45.26,15,28.34,40.37" transform="translate(-8.34 -2.8)"/><line class="cls-1" x1="19.18" y1="39.12" x2="1.9" y2="27.58"/><path class="cls-1" d="M28.64,40l-.26.39L11.11,28.84l.28-.43" transform="translate(-8.34 -2.8)"/><path class="cls-2" d="M9.43,32.74v3.83a1.5,1.5,0,0,0,3,0,36.17,36.17,0,0,0-.12-4.17l-2.8.76c1.51,2.56,4.31,3.43,6.73,4.92,2.82,1.75,5.45,3.66,8.6,4.82l-.36-2.75c-2.95,1.69-5.42-1.27-7.4-2.86a17.67,17.67,0,0,0-4.29-2.58C11,34,10.22,36.86,12,37.6c4.61,1.94,8.25,8.42,14,5.15A1.52,1.52,0,0,0,25.62,40a37.23,37.23,0,0,1-7.11-4c-2-1.28-5.19-2.24-6.42-4.34-.71-1.21-2.93-.78-2.79.76a36.17,36.17,0,0,1,.12,4.17h3V32.74a1.5,1.5,0,0,0-3,0Z" transform="translate(-8.34 -2.8)"/><path class="cls-2" d="M8.92,36c1.11,7.73,9.07,11.59,16,8.5a1.51,1.51,0,0,0-.36-2.74c-1.68-.28-3.12-1.36-4.77-1.8-2.2-.6-4.88-.5-6-2.86-.84-1.74-3.43-.22-2.59,1.52a7,7,0,0,0,5,3.63,24.59,24.59,0,0,1,4.49,1.21,12.37,12.37,0,0,0,3.11,1.2l-.36-2.75C18,44.33,12.61,40.83,11.81,35.23c-.27-1.9-3.16-1.09-2.89.8Z" transform="translate(-8.34 -2.8)"/><path class="cls-2" d="M11.12,41.66c.73,2,2.5,2.86,4.44,3.46s2.65-2.34.8-2.9c-.76-.23-2-.51-2.35-1.36a1.54,1.54,0,0,0-1.85-1,1.51,1.51,0,0,0-1,1.84Z" transform="translate(-8.34 -2.8)"/></svg>