<svg id="圖層_1" data-name="圖層 1" xmlns="http://www.w3.org/2000/svg" viewBox="0 0 43.94 43.92"><defs><style>.cls-1,.cls-2{fill:#fff;}.cls-1{stroke:#fff;stroke-miterlimit:10;}</style></defs><title>pencil</title><rect class="cls-1" x="22.15" y="5.1" width="10.14" height="31.57" transform="translate(13.16 -15.85) rotate(33.73)"/><path class="cls-2" d="M13.43,31.77v7.75a.75.75,0,0,0,1.5,0V31.77a.75.75,0,0,0-1.5,0Z" transform="translate(-3.02 -4.25)"/><path class="cls-2" d="M21.71,36.25l-7,3.39c-.87.42-.11,1.72.76,1.29l7-3.39c.86-.42.11-1.71-.76-1.29Z" transform="translate(-3.02 -4.25)"/><path class="cls-2" d="M14.59,39.89c-1-.06-11.58-1.13-7.86,2.73.39.41,1.17.45,1.67.57,1.14.29,2.38,0,3.53.11.88.12,3.19.53,1.09,1.07-2.56.66-7.1-1.78-9.29.51-3.68,3.86,8.08,3.29,9.07,3.23C24,47.49,35,44.89,46,48a.75.75,0,0,0,.4-1.44c-7.62-2.12-15.31-1.69-23.1-.89-3.83.4-7.65.88-11.49,1.05-1.28.06-2.56.08-3.84.07C6.89,45.38,7.25,45,9.06,45.65c1.37-.31,3.29.3,4.73.19s5.83-.41,4.79-3c-.55-1.36-3.9-1.05-4.89-1.07-.52,0-5.18.44-5.3-.65,0,0,5.71.24,6.2.27,1,.07,1-1.43,0-1.5Z" transform="translate(-3.02 -4.25)"/></svg>