<svg xmlns="http://www.w3.org/2000/svg" width="30" height="30" viewBox="0 0 30 30">
    <g fill="none" fill-rule="nonzero" transform="matrix(-1 0 0 1 30 0)">
        <circle cx="15" cy="15" r="15" fill="#FFF"/>
        <path fill="#0000AF" stroke="#0000AF" stroke-width=".4" d="M19.757 15.968H9.597c-.258 0-.43-.173-.43-.434 0-.26.172-.435.43-.435h10.074l-2.67-2.694a.423.423 0 0 1 0-.608.414.414 0 0 1 .604 0l2.84 2.868a1.268 1.268 0 0 1 0 1.825l-2.84 2.868c0 .086-.087.086-.259.086-.086 0-.258 0-.344-.086a.423.423 0 0 1 0-.609l2.755-2.78z"/>
    </g>
</svg>
